<svg width="318" height="251" viewBox="0 0 318 251" fill="none" xmlns="http://www.w3.org/2000/svg">
<g filter="url(#filter0_d_3552_15614)">
  <rect x="33.8123" y="33.8121" width="250" height="182.474" rx="15.5349" fill="currentColor" opacity="0.06" shape-rendering="crispEdges"/>

  <path d="M45.934 58.2373V48.3172H52.4719V49.7153H47.5052V52.5649H52.2056V53.963H47.5052V56.8392H52.4719V58.2373H45.934ZM52.6662 58.2373L55.1828 54.6288L52.6662 51.0336H54.4371L56.5011 54.0429H55.6489L57.7128 51.0336H59.4838L56.9538 54.6288L59.4704 58.2373H57.6995L55.6622 55.2147H56.4877L54.4371 58.2373H52.6662ZM60.1117 60.9004V51.0336H61.5497V52.5249L61.3766 52.1787C61.643 51.7704 61.998 51.4508 62.4419 51.22C62.8857 50.9892 63.3917 50.8738 63.9599 50.8738C64.6434 50.8738 65.2559 51.038 65.7974 51.3665C66.3478 51.6949 66.7783 52.1432 67.089 52.7113C67.4086 53.2795 67.5684 53.9186 67.5684 54.6288C67.5684 55.3389 67.4086 55.9781 67.089 56.5462C66.7783 57.1144 66.3522 57.5671 65.8107 57.9044C65.2692 58.2329 64.6523 58.3971 63.9599 58.3971C63.4006 58.3971 62.8902 58.2817 62.4286 58.0509C61.9758 57.8201 61.6252 57.4872 61.3766 57.0522L61.6163 56.7726V60.9004H60.1117ZM63.8134 56.999C64.2395 56.999 64.6168 56.8969 64.9452 56.6927C65.2737 56.4885 65.5311 56.2089 65.7175 55.8538C65.9128 55.4899 66.0105 55.0815 66.0105 54.6288C66.0105 54.176 65.9128 53.7721 65.7175 53.4171C65.5311 53.062 65.2737 52.7824 64.9452 52.5782C64.6168 52.374 64.2395 52.2719 63.8134 52.2719C63.3962 52.2719 63.0189 52.374 62.6816 52.5782C62.3531 52.7824 62.0912 53.062 61.896 53.4171C61.7095 53.7721 61.6163 54.176 61.6163 54.6288C61.6163 55.0815 61.7095 55.4899 61.896 55.8538C62.0912 56.2089 62.3531 56.4885 62.6816 56.6927C63.0189 56.8969 63.3962 56.999 63.8134 56.999ZM72.0148 58.3971C71.2957 58.3971 70.6566 58.2329 70.0973 57.9044C69.5469 57.5671 69.1164 57.1144 68.8057 56.5462C68.495 55.9692 68.3397 55.3256 68.3397 54.6155C68.3397 53.8875 68.495 53.244 68.8057 52.6847C69.1253 52.1254 69.5514 51.686 70.084 51.3665C70.6166 51.038 71.2203 50.8738 71.8949 50.8738C72.4364 50.8738 72.9202 50.967 73.3463 51.1534C73.7724 51.3398 74.1319 51.5973 74.4249 51.9257C74.7178 52.2453 74.9398 52.6137 75.0907 53.0309C75.2505 53.4481 75.3303 53.892 75.3303 54.3625C75.3303 54.4779 75.3259 54.5977 75.317 54.722C75.3082 54.8463 75.2904 54.9617 75.2638 55.0682H69.5247V53.8698H74.4116L73.6925 54.4157C73.7813 53.9808 73.7502 53.5946 73.5993 53.2573C73.4573 52.9111 73.2354 52.6403 72.9335 52.445C72.6406 52.2408 72.2944 52.1388 71.8949 52.1388C71.4955 52.1388 71.1404 52.2408 70.8297 52.445C70.519 52.6403 70.2793 52.9244 70.1106 53.2972C69.942 53.6612 69.8754 54.105 69.9109 54.6288C69.8665 55.117 69.9331 55.5431 70.1106 55.9071C70.2971 56.271 70.5545 56.5551 70.8829 56.7593C71.2203 56.9634 71.602 57.0655 72.0281 57.0655C72.4631 57.0655 72.8315 56.9679 73.1333 56.7726C73.444 56.5773 73.6881 56.3243 73.8656 56.0136L75.0907 56.6128C74.9486 56.9501 74.7267 57.2564 74.4249 57.5316C74.1319 57.7979 73.7769 58.0109 73.3596 58.1707C72.9513 58.3216 72.503 58.3971 72.0148 58.3971ZM76.3993 58.2373V51.0336H77.8374V52.445L77.6643 52.2586C77.8419 51.8059 78.1259 51.4641 78.5165 51.2333C78.9071 50.9936 79.3598 50.8738 79.8747 50.8738C80.4073 50.8738 80.8778 50.9892 81.2862 51.22C81.6945 51.4508 82.0141 51.7704 82.2449 52.1787C82.4757 52.5871 82.5911 53.0575 82.5911 53.5902V58.2373H81.0997V53.9896C81.0997 53.6257 81.0332 53.3194 80.9 53.0709C80.7668 52.8134 80.576 52.6181 80.3274 52.485C80.0878 52.3429 79.8126 52.2719 79.5019 52.2719C79.1912 52.2719 78.9115 52.3429 78.663 52.485C78.4233 52.6181 78.2369 52.8134 78.1037 53.0709C77.9706 53.3283 77.904 53.6345 77.904 53.9896V58.2373H76.3993ZM86.4651 58.3971C85.7283 58.3971 85.0803 58.2151 84.521 57.8512C83.9706 57.4872 83.5845 56.999 83.3626 56.3864L84.521 55.8405C84.7163 56.2488 84.9826 56.5729 85.3199 56.8125C85.6662 57.0522 86.0479 57.1721 86.4651 57.1721C86.8202 57.1721 87.1087 57.0922 87.3306 56.9324C87.5525 56.7726 87.6635 56.5551 87.6635 56.2799C87.6635 56.1024 87.6147 55.9603 87.517 55.8538C87.4194 55.7384 87.2951 55.6452 87.1442 55.5742C87.0022 55.5032 86.8557 55.4499 86.7048 55.4144L85.5729 55.0948C84.9515 54.9173 84.4855 54.651 84.1748 54.2959C83.873 53.9319 83.7221 53.5103 83.7221 53.0309C83.7221 52.5959 83.833 52.2187 84.055 51.8991C84.2769 51.5706 84.5832 51.3176 84.9737 51.1401C85.3643 50.9626 85.8037 50.8738 86.292 50.8738C86.9489 50.8738 87.5348 51.038 88.0496 51.3665C88.5645 51.686 88.9285 52.1343 89.1415 52.7113L87.9831 53.2573C87.841 52.9111 87.6147 52.6359 87.304 52.4317C87.0022 52.2275 86.6604 52.1254 86.2787 52.1254C85.9502 52.1254 85.6883 52.2053 85.4931 52.3651C85.2978 52.516 85.2001 52.7158 85.2001 52.9643C85.2001 53.133 85.2445 53.275 85.3333 53.3904C85.422 53.497 85.5374 53.5857 85.6795 53.6567C85.8215 53.7189 85.968 53.7721 86.1189 53.8165L87.2907 54.1627C87.8854 54.3314 88.3426 54.5977 88.6622 54.9617C88.9817 55.3168 89.1415 55.7429 89.1415 56.24C89.1415 56.6661 89.0261 57.0433 88.7953 57.3718C88.5734 57.6914 88.2627 57.9444 87.8632 58.1308C87.4638 58.3083 86.9977 58.3971 86.4651 58.3971ZM93.5985 58.3971C92.8795 58.3971 92.2403 58.2329 91.6811 57.9044C91.1307 57.5671 90.7001 57.1144 90.3894 56.5462C90.0787 55.9692 89.9234 55.3256 89.9234 54.6155C89.9234 53.8875 90.0787 53.244 90.3894 52.6847C90.709 52.1254 91.1351 51.686 91.6677 51.3665C92.2004 51.038 92.804 50.8738 93.4787 50.8738C94.0202 50.8738 94.504 50.967 94.9301 51.1534C95.3562 51.3398 95.7157 51.5973 96.0086 51.9257C96.3016 52.2453 96.5235 52.6137 96.6744 53.0309C96.8342 53.4481 96.9141 53.892 96.9141 54.3625C96.9141 54.4779 96.9096 54.5977 96.9008 54.722C96.8919 54.8463 96.8741 54.9617 96.8475 55.0682H91.1085V53.8698H95.9953L95.2763 54.4157C95.365 53.9808 95.334 53.5946 95.1831 53.2573C95.041 52.9111 94.8191 52.6403 94.5173 52.445C94.2243 52.2408 93.8781 52.1388 93.4787 52.1388C93.0792 52.1388 92.7241 52.2408 92.4134 52.445C92.1027 52.6403 91.863 52.9244 91.6944 53.2972C91.5257 53.6612 91.4591 54.105 91.4946 54.6288C91.4503 55.117 91.5168 55.5431 91.6944 55.9071C91.8808 56.271 92.1382 56.5551 92.4667 56.7593C92.804 56.9634 93.1857 57.0655 93.6118 57.0655C94.0468 57.0655 94.4152 56.9679 94.717 56.7726C95.0277 56.5773 95.2718 56.3243 95.4494 56.0136L96.6744 56.6128C96.5324 56.9501 96.3104 57.2564 96.0086 57.5316C95.7157 57.7979 95.3606 58.0109 94.9434 58.1707C94.535 58.3216 94.0867 58.3971 93.5985 58.3971ZM100.646 58.3971C99.9094 58.3971 99.2614 58.2151 98.7021 57.8512C98.1517 57.4872 97.7656 56.999 97.5437 56.3864L98.7021 55.8405C98.8974 56.2488 99.1637 56.5729 99.5011 56.8125C99.8473 57.0522 100.229 57.1721 100.646 57.1721C101.001 57.1721 101.29 57.0922 101.512 56.9324C101.734 56.7726 101.845 56.5551 101.845 56.2799C101.845 56.1024 101.796 55.9603 101.698 55.8538C101.6 55.7384 101.476 55.6452 101.325 55.5742C101.183 55.5032 101.037 55.4499 100.886 55.4144L99.7541 55.0948C99.1327 54.9173 98.6666 54.651 98.3559 54.2959C98.0541 53.9319 97.9032 53.5103 97.9032 53.0309C97.9032 52.5959 98.0141 52.2187 98.2361 51.8991C98.458 51.5706 98.7643 51.3176 99.1548 51.1401C99.5454 50.9626 99.9849 50.8738 100.473 50.8738C101.13 50.8738 101.716 51.038 102.231 51.3665C102.746 51.686 103.11 52.1343 103.323 52.7113L102.164 53.2573C102.022 52.9111 101.796 52.6359 101.485 52.4317C101.183 52.2275 100.841 52.1254 100.46 52.1254C100.131 52.1254 99.8695 52.2053 99.6742 52.3651C99.4789 52.516 99.3812 52.7158 99.3812 52.9643C99.3812 53.133 99.4256 53.275 99.5144 53.3904C99.6031 53.497 99.7185 53.5857 99.8606 53.6567C100.003 53.7189 100.149 53.7721 100.3 53.8165L101.472 54.1627C102.067 54.3314 102.524 54.5977 102.843 54.9617C103.163 55.3168 103.323 55.7429 103.323 56.24C103.323 56.6661 103.207 57.0433 102.976 57.3718C102.754 57.6914 102.444 57.9444 102.044 58.1308C101.645 58.3083 101.179 58.3971 100.646 58.3971Z" fill="currentColor"/>

  <rect x="222.414" y="44.9084" width="50.3023" height="16.6578" rx="8.3289" fill="currentColor" opacity="0.12"/>
  <path d="M233.182 50.6301V55.2373H232.576V51.8019L231.044 55.2373H230.618L229.08 51.7952V55.2373H228.475V50.6301H229.127L230.831 54.4384L232.536 50.6301H233.182ZM235.8 55.2972C235.459 55.2972 235.148 55.2196 234.868 55.0642C234.593 54.9089 234.376 54.6891 234.216 54.4051C234.06 54.1166 233.983 53.7837 233.983 53.4064C233.983 53.0336 234.063 52.7051 234.222 52.4211C234.387 52.1326 234.609 51.9128 234.888 51.7619C235.168 51.6066 235.481 51.5289 235.827 51.5289C236.173 51.5289 236.486 51.6066 236.766 51.7619C237.045 51.9128 237.265 52.1303 237.425 52.4144C237.589 52.6985 237.671 53.0291 237.671 53.4064C237.671 53.7837 237.587 54.1166 237.418 54.4051C237.254 54.6891 237.03 54.9089 236.746 55.0642C236.462 55.2196 236.147 55.2972 235.8 55.2972ZM235.8 54.7646C236.018 54.7646 236.222 54.7136 236.413 54.6115C236.604 54.5094 236.757 54.3563 236.872 54.1521C236.992 53.9479 237.052 53.6994 237.052 53.4064C237.052 53.1135 236.994 52.8649 236.879 52.6607C236.763 52.4566 236.613 52.3057 236.426 52.208C236.24 52.1059 236.038 52.0549 235.82 52.0549C235.598 52.0549 235.394 52.1059 235.208 52.208C235.026 52.3057 234.879 52.4566 234.768 52.6607C234.657 52.8649 234.602 53.1135 234.602 53.4064C234.602 53.7038 234.655 53.9546 234.762 54.1587C234.873 54.3629 235.019 54.516 235.201 54.6181C235.383 54.7158 235.583 54.7646 235.8 54.7646ZM240.245 51.5223C240.689 51.5223 241.049 51.6576 241.324 51.9284C241.599 52.1947 241.737 52.5808 241.737 53.0868V55.2373H241.138V53.1734C241.138 52.8094 241.047 52.532 240.865 52.3412C240.683 52.1459 240.434 52.0482 240.119 52.0482C239.799 52.0482 239.544 52.1481 239.353 52.3478C239.167 52.5476 239.074 52.8383 239.074 53.22V55.2373H238.468V51.5888H239.074V52.1081C239.193 51.9217 239.355 51.7775 239.56 51.6754C239.768 51.5733 239.997 51.5223 240.245 51.5223ZM243.465 52.0882V54.2386C243.465 54.4162 243.503 54.5427 243.579 54.6181C243.654 54.6891 243.785 54.7247 243.971 54.7247H244.417V55.2373H243.872C243.534 55.2373 243.281 55.1596 243.113 55.0043C242.944 54.8489 242.86 54.5937 242.86 54.2386V52.0882H242.387V51.5888H242.86V50.6701H243.465V51.5888H244.417V52.0882H243.465ZM246.962 51.5223C247.238 51.5223 247.486 51.5822 247.708 51.702C247.93 51.8174 248.103 51.9927 248.227 52.228C248.356 52.4632 248.421 52.7495 248.421 53.0868V55.2373H247.821V53.1734C247.821 52.8094 247.73 52.532 247.548 52.3412C247.366 52.1459 247.118 52.0482 246.803 52.0482C246.483 52.0482 246.228 52.1481 246.037 52.3478C245.851 52.5476 245.757 52.8383 245.757 53.22V55.2373H245.152V50.3105H245.757V52.1081C245.877 51.9217 246.041 51.7775 246.25 51.6754C246.463 51.5733 246.701 51.5223 246.962 51.5223ZM250.016 50.3105V55.2373H249.41V50.3105H250.016ZM254.191 51.5888L251.994 56.955H251.368L252.087 55.1974L250.616 51.5888H251.288L252.433 54.5449L253.565 51.5888H254.191Z" fill="currentColor" opacity="0.6"/>

  <path d="M259.8 52.1093L262.212 54.5209C262.496 54.8057 262.963 54.8057 263.247 54.5209L265.659 52.1093" stroke="currentColor" opacity="0.6" stroke-width="0.605254" stroke-miterlimit="10" stroke-linecap="round" stroke-linejoin="round"/>

  <path d="M55.0684 102.843C53.4557 102.843 52.0258 102.52 50.7787 101.875C49.5531 101.23 48.5855 100.359 47.876 99.2626C47.1879 98.1445 46.8439 96.8974 46.8439 95.5213C46.8439 93.9732 47.2739 92.6185 48.134 91.4574C48.9941 90.2963 50.1767 89.4685 51.6818 88.9739L51.6173 89.7803C50.4777 89.3287 49.5854 88.6084 48.9403 87.6193C48.3168 86.6087 48.005 85.5229 48.005 84.3618C48.005 83.1362 48.306 82.0503 48.9081 81.1042C49.5316 80.1581 50.3702 79.4163 51.4238 78.8788C52.4989 78.3197 53.7138 78.0402 55.0684 78.0402C56.423 78.0402 57.6271 78.309 58.6807 78.8465C59.7343 79.3841 60.5621 80.1366 61.1642 81.1042C61.7877 82.0503 62.0995 83.1362 62.0995 84.3618C62.0995 85.5874 61.7662 86.684 61.0997 87.6516C60.4546 88.6192 59.5945 89.3395 58.5194 89.8125L58.4227 88.9739C59.9493 89.4685 61.1427 90.3071 62.0028 91.4897C62.8628 92.6508 63.2929 93.9947 63.2929 95.5213C63.2929 96.8974 62.9381 98.1445 62.2285 99.2626C61.5405 100.359 60.5729 101.23 59.3258 101.875C58.1002 102.52 56.681 102.843 55.0684 102.843ZM55.0684 100.101C56.079 100.101 56.9605 99.9077 57.7131 99.5207C58.4657 99.1336 59.0462 98.5961 59.4548 97.908C59.8848 97.1985 60.0998 96.3921 60.0998 95.489C60.0998 94.5645 59.8848 93.7581 59.4548 93.0701C59.0462 92.3605 58.4657 91.823 57.7131 91.4574C56.9605 91.0704 56.079 90.8769 55.0684 90.8769C54.0578 90.8769 53.1655 91.0704 52.3914 91.4574C51.6388 91.823 51.0583 92.3605 50.6497 93.0701C50.2412 93.7581 50.0369 94.5645 50.0369 95.489C50.0369 96.3921 50.2412 97.1985 50.6497 97.908C51.0583 98.5961 51.6388 99.1336 52.3914 99.5207C53.1655 99.9077 54.0578 100.101 55.0684 100.101ZM55.0684 88.1354C55.7994 88.1354 56.4445 87.9741 57.0036 87.6516C57.5841 87.329 58.0464 86.899 58.3904 86.3615C58.7345 85.8024 58.9065 85.1573 58.9065 84.4263C58.9065 83.6952 58.7345 83.0609 58.3904 82.5234C58.0464 81.9858 57.5841 81.5665 57.0036 81.2655C56.4445 80.943 55.7994 80.7817 55.0684 80.7817C54.3158 80.7817 53.6492 80.943 53.0687 81.2655C52.4881 81.5665 52.0258 81.9858 51.6818 82.5234C51.3378 83.0609 51.1658 83.6952 51.1658 84.4263C51.1658 85.1573 51.3378 85.8024 51.6818 86.3615C52.0258 86.899 52.4881 87.329 53.0687 87.6516C53.6492 87.9741 54.3158 88.1354 55.0684 88.1354ZM74.8687 102.843C73.6216 102.843 72.4497 102.628 71.3531 102.198C70.2565 101.746 69.2997 101.112 68.4826 100.295C67.687 99.4562 67.1065 98.4778 66.7409 97.3597L69.3212 96.2631C69.7727 97.4457 70.5038 98.3703 71.5144 99.0369C72.5465 99.6819 73.6646 100.004 74.8687 100.004C75.8578 100.004 76.7286 99.7894 77.4812 99.3594C78.2552 98.9079 78.8573 98.2951 79.2873 97.521C79.7174 96.7254 79.9324 95.8438 79.9324 94.8762C79.9324 93.8656 79.7066 92.9733 79.2551 92.1992C78.825 91.4252 78.2337 90.8231 77.4812 90.3931C76.7286 89.9415 75.8685 89.7158 74.9009 89.7158C73.9118 89.7158 73.0088 89.9415 72.1917 90.3931C71.3746 90.8446 70.7833 91.4144 70.4178 92.1025L67.8698 91.5542L69.7082 78.4272H82.1578V81.1687H70.9016L72.1272 79.9431L70.708 90.1351L69.6114 89.49C70.321 88.5869 71.1488 87.9419 72.0949 87.5548C73.0625 87.1463 74.1054 86.942 75.2235 86.942C76.7931 86.942 78.1692 87.2968 79.3518 88.0064C80.5344 88.7159 81.459 89.662 82.1256 90.8446C82.7922 92.0272 83.1254 93.3711 83.1254 94.8762C83.1254 96.3814 82.7599 97.736 82.0288 98.9401C81.3193 100.144 80.3409 101.101 79.0938 101.811C77.8682 102.499 76.4598 102.843 74.8687 102.843ZM89.6796 102.456L109.289 78.4272H112.869L93.2597 102.456H89.6796ZM93.2919 90.6189C92.1093 90.6189 91.045 90.3393 90.0989 89.7803C89.1528 89.1997 88.3895 88.4364 87.8089 87.4903C87.2499 86.5442 86.9703 85.4906 86.9703 84.3295C86.9703 83.1684 87.2499 82.1148 87.8089 81.1687C88.3895 80.2011 89.1528 79.4378 90.0989 78.8788C91.045 78.3197 92.1093 78.0402 93.2919 78.0402C94.453 78.0402 95.5066 78.3197 96.4527 78.8788C97.3988 79.4378 98.1514 80.2011 98.7104 81.1687C99.2695 82.1148 99.549 83.1684 99.549 84.3295C99.549 85.4906 99.2695 86.5442 98.7104 87.4903C98.1514 88.4364 97.3988 89.1997 96.4527 89.7803C95.5066 90.3393 94.453 90.6189 93.2919 90.6189ZM93.2597 87.9741C93.9907 87.9741 94.6143 87.8021 95.1303 87.4581C95.6464 87.114 96.0549 86.6625 96.356 86.1034C96.657 85.5444 96.8075 84.9531 96.8075 84.3295C96.8075 83.6845 96.657 83.0932 96.356 82.5556C96.0549 81.9966 95.6464 81.545 95.1303 81.201C94.6143 80.8354 93.9907 80.6527 93.2597 80.6527C92.5716 80.6527 91.9588 80.8354 91.4212 81.201C90.8837 81.545 90.4644 81.9966 90.1634 82.5556C89.8624 83.1147 89.7118 83.706 89.7118 84.3295C89.7118 84.9316 89.8624 85.5229 90.1634 86.1034C90.4644 86.6625 90.8837 87.114 91.4212 87.4581C91.9588 87.8021 92.5716 87.9741 93.2597 87.9741ZM109.064 102.843C107.881 102.843 106.817 102.563 105.871 102.004C104.924 101.424 104.161 100.66 103.581 99.7142C103.022 98.7681 102.742 97.7145 102.742 96.5534C102.742 95.3923 103.022 94.3387 103.581 93.3926C104.161 92.425 104.924 91.6617 105.871 91.1026C106.817 90.5436 107.881 90.2641 109.064 90.2641C110.225 90.2641 111.278 90.5436 112.224 91.1026C113.17 91.6617 113.923 92.425 114.482 93.3926C115.041 94.3387 115.321 95.3923 115.321 96.5534C115.321 97.7145 115.041 98.7681 114.482 99.7142C113.923 100.66 113.17 101.424 112.224 102.004C111.278 102.563 110.225 102.843 109.064 102.843ZM109.064 100.198C109.773 100.198 110.386 100.026 110.902 99.6819C111.44 99.3379 111.848 98.8864 112.128 98.3273C112.429 97.7683 112.579 97.177 112.579 96.5534C112.579 95.9083 112.429 95.317 112.128 94.7795C111.848 94.2204 111.44 93.7689 110.902 93.4249C110.386 93.0593 109.773 92.8766 109.064 92.8766C108.376 92.8766 107.752 93.0593 107.193 93.4249C106.655 93.7689 106.236 94.2204 105.935 94.7795C105.634 95.3385 105.484 95.9298 105.484 96.5534C105.484 97.1555 105.634 97.7468 105.935 98.3273C106.236 98.8864 106.655 99.3379 107.193 99.6819C107.752 100.026 108.376 100.198 109.064 100.198Z" fill="currentColor"/>

  <rect opacity="0.12" x="44.9084" y="160.034" width="26.8009" height="45.1542" rx="13.4004" fill="currentColor"/>
  <rect x="44.9084" y="172.934" width="26.8009" height="32.253" rx="13.4004" fill="currentColor"/>
  <rect opacity="0.12" x="85.1096" y="142.296" width="26.8009" height="62.8933" rx="13.4004" fill="currentColor"/>
  <rect x="85.1096" y="160.034" width="26.8009" height="45.1542" rx="13.4004" fill="currentColor"/>
  <rect opacity="0.12" x="125.311" y="157.616" width="26.8009" height="47.5731" rx="13.4004" fill="currentColor"/>
  <rect x="125.311" y="174.549" width="26.8009" height="30.6403" rx="13.4004" fill="currentColor"/>
  <rect opacity="0.12" x="165.512" y="164.872" width="26.8009" height="40.3162" rx="13.4004" fill="currentColor"/>
  <rect x="165.512" y="174.547" width="26.8009" height="30.6403" rx="13.4004" fill="currentColor"/>
  <rect opacity="0.12" x="205.714" y="135.844" width="26.8009" height="69.3439" rx="13.4004" fill="currentColor"/>
  <rect x="205.714" y="155.196" width="26.8009" height="49.9921" rx="13.4004" fill="currentColor"/>
  <rect opacity="0.12" x="245.915" y="125.362" width="26.8009" height="79.8261" rx="13.4004" fill="currentColor"/>
  <rect x="245.915" y="143.907" width="26.8009" height="61.2806" rx="13.4004" fill="currentColor"/>
</g>

<defs>
  <filter id="filter0_d_3552_15614" x="9.91821e-05" y="-2.28882e-05" width="317.624" height="250.098" filterUnits="userSpaceOnUse" color-interpolation-filters="sRGB">
    <feFlood flood-opacity="0" result="BackgroundImageFix"/>
    <feColorMatrix in="SourceAlpha" type="matrix" values="0 0 0 0 0 0 0 0 0 0 0 0 0 0 0 0 0 0 127 0" result="hardAlpha"/>
    <feOffset/>
    <feGaussianBlur stdDeviation="16.9061"/>
    <feComposite in2="hardAlpha" operator="out"/>
    <feColorMatrix type="matrix" values="0 0 0 0 0 0 0 0 0 0 0 0 0 0 0 0 0 0 0.07 0"/>
    <feBlend mode="normal" in2="BackgroundImageFix" result="effect1_dropShadow_3552_15614"/>
    <feBlend mode="normal" in="SourceGraphic" in2="effect1_dropShadow_3552_15614" result="shape"/>
  </filter>
</defs>
</svg>
